<svg xmlns="http://www.w3.org/2000/svg" xmlns:xlink="http://www.w3.org/1999/xlink" viewBox="0,0,256,256" width="16px" height="16px" fill-rule="nonzero"><g fill="#62666d" fill-rule="nonzero" stroke="none" stroke-width="1" stroke-linecap="butt" stroke-linejoin="miter" stroke-miterlimit="10" stroke-dasharray="" stroke-dashoffset="0" font-family="none" font-weight="none" font-size="none" text-anchor="none" style="mix-blend-mode: normal"><g transform="scale(10.66667,10.66667)"><path d="M7,2c-1.105,0 -2,0.895 -2,2v16c0,1.105 0.895,2 2,2h10c1.105,0 2,-0.895 2,-2v-16c0,-1.105 -0.895,-2 -2,-2zM7,4h10v9h-10zM12,14c0.552,0 1,0.448 1,1c0,0.552 -0.448,1 -1,1c-0.552,0 -1,-0.448 -1,-1c0,-0.552 0.448,-1 1,-1zM8,17h2v1h-3c0,-0.552 0.448,-1 1,-1zM11,17h2v1h-2zM14,17h2c0.552,0 1,0.448 1,1h-3zM7,19h3v1h-2c-0.552,0 -1,-0.448 -1,-1zM11,19h2v1h-2zM14,19h3c0,0.552 -0.448,1 -1,1h-2z"></path></g></g></svg>